<svg width="36" height="36" viewBox="0 0 36 36" fill="none" xmlns="http://www.w3.org/2000/svg">
<path d="M16.3333 30.0834H6.33325C3.70492 30.0834 2.58325 28.9617 2.58325 26.3334V12.5834H30.0833V16.3334C30.0833 17.0234 30.6433 17.5834 31.3333 17.5834C32.0233 17.5834 32.5833 17.0234 32.5833 16.3334V8.83337C32.5833 4.80337 30.3633 2.58337 26.3333 2.58337H24.2499V1.33337C24.2499 0.643374 23.6899 0.083374 22.9999 0.083374C22.3099 0.083374 21.7499 0.643374 21.7499 1.33337V2.58337H10.9166V1.33337C10.9166 0.643374 10.3566 0.083374 9.66659 0.083374C8.97659 0.083374 8.41659 0.643374 8.41659 1.33337V2.58337H6.33325C2.30325 2.58337 0.083252 4.80337 0.083252 8.83337V26.3334C0.083252 30.3634 2.30325 32.5834 6.33325 32.5834H16.3333C17.0233 32.5834 17.5833 32.0234 17.5833 31.3334C17.5833 30.6434 17.0233 30.0834 16.3333 30.0834ZM6.33325 5.08337H8.41659V6.33337C8.41659 7.02337 8.97659 7.58337 9.66659 7.58337C10.3566 7.58337 10.9166 7.02337 10.9166 6.33337V5.08337H21.7499V6.33337C21.7499 7.02337 22.3099 7.58337 22.9999 7.58337C23.6899 7.58337 24.2499 7.02337 24.2499 6.33337V5.08337H26.3333C28.9616 5.08337 30.0833 6.20504 30.0833 8.83337V10.0834H2.58325V8.83337C2.58325 6.20504 3.70492 5.08337 6.33325 5.08337ZM11.3666 18C11.3666 18.92 10.6216 19.6667 9.69995 19.6667C8.77995 19.6667 8.02474 18.92 8.02474 18C8.02474 17.08 8.76327 16.3334 9.68327 16.3334H9.69995C10.62 16.3334 11.3666 17.08 11.3666 18ZM18.0333 18C18.0333 18.92 17.2883 19.6667 16.3666 19.6667C15.4466 19.6667 14.6914 18.92 14.6914 18C14.6914 17.08 15.4299 16.3334 16.3499 16.3334H16.3666C17.2866 16.3334 18.0333 17.08 18.0333 18ZM27.9999 20.0834C23.6349 20.0834 20.0833 23.635 20.0833 28C20.0833 32.365 23.6349 35.9167 27.9999 35.9167C32.3649 35.9167 35.9166 32.365 35.9166 28C35.9166 23.635 32.3649 20.0834 27.9999 20.0834ZM27.9999 33.4167C25.0133 33.4167 22.5833 30.9867 22.5833 28C22.5833 25.0134 25.0133 22.5834 27.9999 22.5834C30.9866 22.5834 33.4166 25.0134 33.4166 28C33.4166 30.9867 30.9866 33.4167 27.9999 33.4167ZM30.9666 25.7267C31.455 26.215 31.455 27.0067 30.9666 27.4951L28.1883 30.2734C27.9533 30.5084 27.6366 30.64 27.3049 30.64C26.9733 30.64 26.6549 30.5084 26.4216 30.2734L25.0332 28.8851C24.5449 28.3967 24.5449 27.605 25.0332 27.1167C25.5232 26.6267 26.3149 26.63 26.8016 27.1167L27.3066 27.6216L29.2015 25.7283C29.6882 25.2383 30.4783 25.2384 30.9666 25.7267ZM11.3666 24.6667C11.3666 25.5867 10.6216 26.3334 9.69995 26.3334C8.77995 26.3334 8.02474 25.5867 8.02474 24.6667C8.02474 23.7467 8.76327 23 9.68327 23H9.69995C10.62 23 11.3666 23.7467 11.3666 24.6667Z" fill="#F54F35"/>
</svg>
